<?xml version="1.0" standalone="no"?>
<!DOCTYPE svg PUBLIC "-//W3C//DTD SVG 20010904//EN"
 "http://www.w3.org/TR/2001/REC-SVG-20010904/DTD/svg10.dtd">
<svg version="1.0" xmlns="http://www.w3.org/2000/svg"
 width="2560.000000pt" height="2560.000000pt" viewBox="0 0 2560.000000 2560.000000"
 preserveAspectRatio="xMidYMid meet">
<metadata>
Created by potrace 1.14, written by Peter Selinger 2001-2017
</metadata>
<g transform="translate(0.000000,2560.000000) scale(0.100000,-0.100000)"
fill="#000000" stroke="none">
<path d="M6857 17153 c-2 -5 -4 -1900 -3 -4213 l1 -4205 898 -1 c493 0 897 2
898 5 0 3 2 735 4 1626 5 1684 10 2265 21 2350 11 85 53 216 103 320 155 323
429 478 832 469 409 -9 635 -187 734 -578 43 -170 42 -118 50 -2306 4 -987 8
-1815 8 -1840 l2 -45 890 0 890 0 -3 2228 -2 2228 -36 162 c-47 213 -101 373
-179 532 -101 208 -206 352 -364 499 -211 198 -595 382 -882 422 -24 3 -55 8
-69 10 -179 25 -608 26 -758 1 -557 -93 -939 -327 -1266 -775 -38 -52 -69 -77
-84 -68 -5 3 2 78 14 168 13 90 26 188 29 218 3 30 8 66 10 80 3 22 8 71 21
205 3 36 15 235 19 320 10 196 16 678 18 1385 l2 805 -897 3 c-493 1 -899 -1
-901 -5z"/>
<path d="M14830 17047 c-3 -3 -32 -8 -65 -12 -33 -3 -69 -8 -80 -11 -29 -6
-73 -13 -125 -20 -218 -29 -510 -120 -723 -223 -241 -118 -388 -223 -577 -411
-194 -193 -345 -409 -480 -685 -48 -99 -91 -191 -95 -204 -4 -13 -14 -40 -23
-60 -9 -20 -17 -40 -18 -46 -2 -5 -21 -62 -43 -125 -56 -158 -131 -446 -167
-634 -2 -11 -6 -32 -9 -46 -6 -34 -14 -78 -21 -120 -3 -19 -7 -46 -9 -60 -16
-91 -41 -290 -50 -390 -3 -36 -8 -81 -10 -100 -4 -32 -12 -151 -20 -285 -31
-522 -22 -1382 20 -1805 21 -218 32 -318 40 -360 3 -14 7 -43 10 -65 2 -23 12
-86 21 -140 9 -55 18 -113 21 -130 13 -82 95 -425 127 -532 36 -121 107 -329
126 -368 5 -11 28 -62 50 -114 45 -104 121 -250 183 -351 44 -72 117 -182 126
-190 3 -3 22 -25 42 -50 236 -292 530 -518 846 -654 159 -68 444 -152 583
-171 25 -4 66 -11 92 -15 26 -5 76 -12 110 -16 35 -3 74 -7 88 -10 137 -22
671 -22 800 0 14 2 52 7 85 10 33 3 69 8 80 10 11 2 41 6 66 10 25 4 57 9 70
11 666 126 1173 455 1526 990 74 113 98 154 163 285 29 58 56 113 62 124 28
53 129 326 153 416 1 3 5 12 8 20 6 14 42 144 53 192 3 13 9 39 14 58 5 19 11
45 14 58 3 13 7 31 10 40 3 9 8 31 10 47 3 17 15 73 26 127 11 53 22 115 25
138 3 24 7 46 10 49 2 4 6 34 10 66 3 33 8 69 10 81 8 39 30 205 40 304 3 30
7 73 9 95 3 22 7 74 11 115 3 41 8 91 10 110 24 195 24 1425 0 1690 -2 25 -7
79 -10 120 -8 91 -13 141 -20 200 -3 25 -7 65 -10 90 -3 25 -8 62 -10 83 -3
20 -7 56 -10 80 -4 23 -12 80 -20 127 -8 47 -17 105 -20 130 -4 24 -8 47 -10
50 -2 3 -6 26 -10 50 -18 126 -91 414 -150 599 -69 211 -172 450 -277 641 -72
132 -232 352 -337 464 -34 36 -205 193 -247 226 -125 100 -365 234 -541 303
-86 34 -294 101 -345 111 -13 2 -57 12 -98 21 -41 9 -87 19 -103 21 -15 2 -39
6 -55 9 -29 5 -98 13 -197 20 -86 7 -760 17 -765 12z m546 -1243 c194 -45 331
-167 438 -388 55 -114 131 -378 151 -526 2 -14 8 -52 14 -85 6 -33 13 -82 16
-110 4 -27 8 -61 10 -75 5 -34 13 -111 20 -190 3 -36 7 -85 10 -110 2 -25 7
-94 10 -155 4 -60 9 -135 10 -165 27 -427 27 -1906 0 -2310 -2 -30 -6 -104
-10 -165 -3 -60 -8 -132 -10 -160 -9 -102 -16 -181 -20 -210 -3 -16 -7 -55
-10 -85 -2 -30 -6 -64 -9 -75 -2 -11 -7 -42 -10 -70 -20 -150 -77 -390 -121
-515 -23 -64 -116 -250 -126 -250 -4 0 -10 -8 -13 -17 -10 -29 -104 -122 -159
-157 -115 -73 -218 -96 -407 -91 -155 3 -225 21 -329 82 -120 71 -222 199
-295 368 -32 74 -77 205 -91 265 -33 141 -61 288 -80 425 -3 22 -7 51 -10 65
-2 14 -7 57 -10 95 -3 39 -8 88 -11 110 -2 22 -6 67 -9 100 -2 33 -6 98 -10
145 -3 47 -7 114 -10 150 -27 409 -27 1834 0 2285 13 217 17 273 20 305 2 19
6 71 10 114 4 44 8 87 10 95 1 9 6 48 9 86 4 39 9 77 11 85 2 8 6 38 10 65 7
56 30 187 46 255 6 25 12 53 14 62 16 79 79 263 123 358 33 73 116 187 179
246 63 60 183 130 239 140 15 3 31 7 35 10 4 2 34 7 66 10 32 4 59 7 60 9 10
8 180 -7 239 -21z"/>
<path d="M18740 16943 c-8 -1 -68 -3 -132 -5 -64 -2 -119 -6 -123 -9 -6 -6 -8
-35 -20 -264 -3 -60 -8 -141 -10 -180 -3 -38 -7 -115 -10 -170 -3 -55 -7 -127
-10 -160 -3 -33 -7 -107 -10 -165 -3 -58 -7 -136 -10 -175 -6 -78 -14 -220
-20 -335 -4 -73 -11 -190 -20 -335 -3 -38 -7 -108 -10 -155 -5 -90 -13 -233
-20 -346 -2 -38 -7 -116 -10 -174 -4 -58 -8 -134 -10 -170 -2 -36 -7 -112 -10
-170 -3 -58 -7 -132 -10 -165 -2 -33 -7 -114 -11 -180 -3 -66 -8 -142 -10
-170 -1 -27 -6 -106 -9 -175 -3 -69 -8 -150 -10 -180 -2 -30 -7 -116 -10 -190
-4 -74 -9 -162 -10 -195 -9 -158 -18 -357 -19 -420 l-1 -70 100 -33 c100 -34
467 -150 495 -157 8 -3 116 -36 240 -75 124 -39 277 -86 340 -106 63 -19 137
-42 164 -50 27 -9 58 -13 70 -10 12 3 64 47 117 98 115 111 135 129 219 195
62 48 216 149 233 151 4 1 21 9 38 18 89 45 258 95 379 110 153 19 386 7 526
-27 377 -90 613 -304 743 -672 17 -48 33 -100 36 -115 41 -214 47 -275 47
-498 0 -149 -5 -250 -18 -321 -79 -443 -274 -743 -589 -901 -157 -80 -307
-110 -520 -107 -180 3 -214 8 -326 45 -410 136 -708 496 -844 1023 -27 104
-25 102 -125 68 -47 -16 -242 -83 -435 -149 -903 -310 -1155 -398 -1167 -410
-16 -16 14 -104 88 -261 40 -84 77 -158 83 -164 6 -6 11 -16 11 -21 0 -6 18
-39 40 -74 22 -34 40 -67 40 -72 0 -6 5 -10 10 -10 6 0 10 -5 10 -10 0 -6 17
-34 37 -63 20 -28 46 -66 57 -82 87 -126 313 -367 446 -474 36 -29 72 -59 81
-66 102 -81 422 -263 574 -327 217 -90 526 -176 765 -213 70 -10 91 -13 150
-20 30 -3 71 -8 90 -10 174 -23 722 -23 905 0 17 2 56 7 88 10 32 4 68 8 80
11 12 2 36 6 52 9 369 63 734 200 1050 393 486 298 873 779 1056 1311 34 97
104 364 114 431 4 25 8 47 10 50 2 3 7 33 10 65 4 33 9 69 11 80 10 50 18 247
18 430 -1 209 -7 320 -24 417 -6 32 -12 68 -14 80 -5 31 -11 57 -37 163 -70
290 -214 610 -370 822 -146 197 -378 417 -579 548 -308 202 -676 338 -1081
400 -162 25 -254 30 -529 30 -275 0 -325 -3 -481 -30 -400 -70 -758 -231
-1048 -474 -46 -39 -87 -68 -91 -66 -4 3 -7 20 -5 37 2 18 6 96 9 173 4 77 9
163 11 190 2 28 7 100 10 160 3 61 7 146 10 190 18 298 22 366 30 490 11 165
15 223 20 320 3 55 7 132 10 170 3 39 7 106 10 149 3 44 8 82 11 85 3 3 49 7
102 8 93 2 2552 12 3244 13 l337 0 1 693 c1 380 1 751 1 822 0 72 0 139 0 151
l-1 21 -2308 -1 c-1269 -1 -2314 -2 -2322 -3z"/>
<path d="M4127 14864 c-1 -1 -56 -5 -122 -9 -66 -3 -131 -8 -145 -10 -14 -2
-52 -6 -85 -10 -33 -4 -63 -9 -66 -11 -3 -1 -28 -6 -55 -10 -27 -3 -52 -8 -55
-10 -3 -2 -21 -6 -40 -9 -164 -28 -464 -135 -635 -224 -83 -44 -240 -144 -295
-188 -147 -119 -285 -261 -362 -373 -98 -142 -174 -289 -225 -430 -35 -96 -78
-260 -88 -335 -3 -27 -8 -59 -11 -70 -9 -40 -10 -432 -1 -515 53 -490 290
-852 746 -1133 217 -134 371 -196 1102 -440 689 -230 905 -326 1057 -470 120
-113 167 -221 167 -382 -1 -245 -170 -412 -457 -450 -118 -16 -302 -7 -422 21
-99 23 -295 112 -325 149 -7 8 -17 15 -22 15 -22 0 -190 154 -273 251 -104
120 -205 272 -291 438 -32 62 -65 116 -73 119 -18 7 -16 8 -781 -275 -194 -72
-498 -186 -598 -225 -115 -45 -108 -32 -70 -136 29 -79 147 -305 212 -407 31
-49 62 -99 69 -109 70 -112 290 -353 408 -448 343 -275 726 -442 1200 -522
172 -29 212 -34 349 -43 185 -12 599 -6 686 11 11 2 50 7 86 10 37 4 75 8 85
10 10 2 38 7 63 10 25 3 56 9 70 12 14 3 41 8 60 10 19 3 53 10 75 16 22 5 47
11 55 13 147 29 453 138 575 205 17 9 57 32 90 50 231 128 474 351 624 573 50
75 127 217 149 277 75 201 103 301 129 467 16 105 8 552 -12 657 -110 564
-450 954 -1100 1258 -264 124 -454 192 -955 343 -419 127 -563 181 -730 276
-102 58 -195 151 -235 235 -29 61 -36 96 -40 189 -4 133 37 254 116 339 122
133 393 187 662 131 79 -16 212 -77 302 -137 204 -138 355 -344 446 -610 18
-51 37 -98 43 -105 8 -9 26 -8 76 7 109 31 467 140 740 225 58 18 209 65 335
105 306 94 288 87 282 124 -28 154 -164 461 -274 620 -259 373 -614 630 -1078
782 -101 32 -208 62 -255 70 -14 3 -32 7 -40 9 -8 2 -31 7 -50 10 -19 3 -57
10 -85 15 -27 5 -77 12 -109 15 -33 3 -62 8 -66 10 -14 9 -524 27 -533 19z"/>
</g>
</svg>
