<?xml version="1.0" standalone="no"?>
<!DOCTYPE svg PUBLIC "-//W3C//DTD SVG 20010904//EN"
 "http://www.w3.org/TR/2001/REC-SVG-20010904/DTD/svg10.dtd">
<svg version="1.0" xmlns="http://www.w3.org/2000/svg"
 width="1920.000000pt" height="1080.000000pt" viewBox="0 0 1920.000000 1080.000000"
 preserveAspectRatio="xMidYMid meet">

<g transform="translate(0.000000,1080.000000) scale(0.100000,-0.100000)"
fill="#000000" stroke="none">
<path d="M5140 5510 l0 -3160 675 0 674 0 4 1478 c3 1471 3 1477 24 1564 90
361 310 538 669 538 300 0 485 -127 559 -383 49 -170 48 -124 52 -1709 l4
-1488 670 0 670 0 -3 1668 -3 1667 -23 113 c-122 611 -471 979 -1047 1102
-127 28 -437 38 -582 21 -359 -44 -637 -174 -853 -397 -52 -55 -117 -132 -144
-171 -33 -49 -56 -73 -69 -73 -17 0 -19 5 -13 32 12 58 45 332 56 453 23 271
30 545 30 1208 l0 697 -675 0 -675 0 0 -3160z"/>
<path d="M11140 8584 c-105 -10 -273 -37 -375 -61 -861 -202 -1345 -888 -1495
-2118 -60 -496 -66 -1277 -14 -1800 70 -711 233 -1226 510 -1617 32 -46 113
-137 179 -204 216 -216 453 -350 766 -433 411 -109 955 -110 1364 -4 387 100
710 315 938 625 308 419 475 998 539 1873 16 221 16 970 0 1185 -51 673 -156
1141 -342 1528 -282 585 -723 904 -1390 1008 -101 15 -568 28 -680 18z m388
-929 c118 -28 197 -81 268 -181 190 -266 264 -840 264 -2039 -1 -1216 -71
-1759 -265 -2030 -90 -127 -215 -187 -389 -187 -56 0 -123 5 -150 11 -412 95
-546 638 -546 2206 0 1582 134 2119 553 2221 71 17 189 17 265 -1z"/>
<path d="M13860 8493 c0 -10 -45 -778 -101 -1707 -55 -928 -97 -1692 -92
-1696 9 -9 1036 -330 1055 -330 8 0 49 36 93 81 246 250 488 362 781 361 501
-1 797 -251 870 -735 20 -132 20 -374 0 -497 -67 -412 -294 -675 -645 -746
-116 -23 -317 -16 -416 16 -132 41 -282 135 -370 231 -128 139 -229 337 -280
547 -10 44 -22 72 -29 69 -6 -2 -290 -99 -632 -216 -342 -117 -627 -217 -634
-221 -18 -11 19 -108 102 -273 252 -498 642 -834 1169 -1008 316 -104 643
-147 1038 -136 242 7 362 22 566 72 667 165 1173 602 1400 1210 50 133 100
341 119 493 18 142 21 433 6 567 -37 317 -151 630 -318 865 -86 122 -261 296
-382 382 -252 178 -555 295 -891 343 -154 23 -467 31 -599 16 -377 -42 -687
-169 -928 -379 -35 -30 -65 -52 -68 -49 -3 3 15 335 40 738 26 404 46 737 46
741 0 5 622 9 1383 10 l1382 3 3 633 2 632 -1835 0 c-1741 0 -1835 -1 -1835
-17z"/>
<path d="M2945 6939 c-305 -27 -607 -119 -835 -257 -357 -217 -579 -545 -646
-956 -18 -107 -20 -358 -4 -466 47 -332 201 -576 485 -770 185 -126 340 -192
812 -346 598 -195 772 -272 900 -400 111 -112 139 -291 67 -425 -73 -133 -231
-197 -462 -186 -127 5 -212 27 -317 79 -197 99 -395 317 -529 586 -25 50 -50
92 -54 92 -15 0 -1097 -401 -1105 -409 -10 -10 21 -90 84 -214 191 -376 440
-628 790 -800 335 -165 768 -238 1226 -208 581 39 996 199 1293 500 196 198
308 422 361 721 20 109 17 401 -4 517 -47 251 -151 447 -330 620 -109 105
-190 164 -335 245 -237 133 -441 210 -957 363 -510 151 -675 275 -675 508 0
206 112 327 331 357 362 50 695 -189 822 -589 12 -39 25 -71 30 -71 17 0 1063
323 1071 331 6 5 -4 51 -27 118 -206 623 -736 995 -1512 1061 -139 11 -336 11
-480 -1z"/>
</g>
</svg>
